PathFileType	4	(X/Y/Z)	Patient4_TMGait_0pt6_01_right_09.trc.trc
DataRate	CameraRate	NumFrames	NumMarkers	Units	OrigDataRate	OrigDataStartFrame	OrigNumFrames
81.395348837209	81.395348837209	5	33	mm	81.395348837209	18	       141
Frame#	Time	Sacral			L.Shoulder			Chest			R.Shoulder			Neck			R.ASIS			L.ASIS			R.Thigh.Superior			R.Thigh.Lateral			R.Thigh.Inferior			R.Patella			L.Thigh.Superior			L.Thigh.Lateral			L.Thigh.Inferior			L.Patella			L.Shank.Superior			L.Shank.Lateral			L.Shank.Inferior			R.Shank.Superior			R.Shank.Lateral			R.Shank.Inferior			R.Heel			R.Midfoot.Superior			R.Midfoot.Lateral			R.Toe			L.Heel			L.Midfoot.Lateral			L.Midfoot.Superior			L.Toe			L.Elbow			L.Wrist			R.Elbow			R.Wrist			
		X1	Y1	Z1	X2	Y2	Z2	X3	Y3	Z3	X4	Y4	Z4	X5	Y5	Z5	X6	Y6	Z6	X7	Y7	Z7	X8	Y8	Z8	X9	Y9	Z9	X10	Y10	Z10	X11	Y11	Z11	X12	Y12	Z12	X13	Y13	Z13	X14	Y14	Z14	X15	Y15	Z15	X16	Y16	Z16	X17	Y17	Z17	X18	Y18	Z18	X19	Y19	Z19	X20	Y20	Z20	X21	Y21	Z21	X22	Y22	Z22	X23	Y23	Z23	X24	Y24	Z24	X25	Y25	Z25	X26	Y26	Z26	X27	Y27	Z27	X28	Y28	Z28	X29	Y29	Z29	X30	Y30	Z30	X31	Y31	Z31	X32	Y32	Z32	X33	Y33	Z33	

18	10.538857142857	668.486800576637	996.265040654715	446.702682726395	841.885370091969	1437.362038201264	284.894568222441	934.656388123609	1365.540026575374	450.081649339287	837.116123212681	1431.207888690617	618.636712649340	813.718336756603	1491.707445080297	439.360373386799	890.167297541290	943.024080946336	579.153476869270	891.901759444731	959.872930671190	303.022863781073	964.959811799554	764.081354396320	549.337132842244	919.608446909263	643.434847830390	620.052881778648	1004.475337961661	604.653891197736	537.103168686008	1038.424915562172	524.708422419431	550.524429622296	899.801594715451	731.612422848952	335.081566706486	786.742878816068	634.132340717854	270.288457242129	843.970714661423	542.958128987736	338.841506696082	828.759003398314	476.993372533525	349.836206965534	798.635469614406	409.779998049926	341.682484419112	701.577535154906	302.053865212373	292.473412922781	739.791062747613	189.218313577409	367.756484479792	1029.038562702491	437.858204855799	559.859186074011	987.591892473745	320.536615895271	624.773009506742	1059.513585292697	239.884075607420	567.843634237407	976.588324135373	47.815443162783	540.425088697830	1137.935149350456	129.599220414258	575.470929833473	1064.758071548278	47.737879838986	609.927188025806	1264.661924666042	97.640966399090	593.702462685712	602.229774953551	38.439740012654	413.133832765116	673.586478924176	35.205915834391	330.277162857344	758.081811541858	95.284872313212	355.479992203221	885.307036161554	42.013920262186	322.413207076984	914.097998559123	1103.120095180534	144.904452215625	1162.612591287088	1054.580548158250	187.074965711462	699.417036858378	1113.819680186853	720.240500764800	675.305903444486	853.918063232436	724.695386063009	
19	10.551142857143	669.611764269041	994.606784686800	447.925308249524	842.134632715200	1435.938523525734	286.179591038629	934.623590338143	1364.495382091765	451.626411283144	836.525751810108	1430.101746290498	619.894240257629	813.379780832296	1490.323895493799	440.554055328665	890.855499025121	941.645675562026	580.870792194240	893.144142329158	958.592457078588	304.706719544417	964.597573950334	761.638958420910	551.660156297165	917.761077047535	640.922370529656	621.428919927593	1002.816961276967	602.138075569803	538.729642489304	1035.845348215822	522.770582822745	551.269875370603	898.850055854336	729.910149001711	336.255012523668	784.735572311143	633.495951100742	271.250631154013	841.015458426897	541.711522342461	339.683869032949	825.116943495365	475.700759540783	350.567473178972	794.353928420103	408.801526066549	342.321749767322	696.250173522453	302.058679780836	292.939229774492	733.301873918166	188.719232848082	368.051951521075	1027.556588070107	435.929473225617	560.646484538880	986.990727467744	318.013205173562	624.910678959064	1060.053970032576	238.315028331267	567.999457482409	979.239815720032	45.833224687697	539.572454589562	1139.768484356662	128.293475674526	575.232142415153	1067.010903876457	46.299443026263	609.421084976997	1266.651193518929	97.116747734456	594.119572514839	594.832849323702	38.441030789959	413.136503044560	666.182629211247	35.204055595014	330.309900343279	750.722728743045	95.215172335076	355.544089005227	877.897718408988	41.826825450165	322.384856500425	916.091529784973	1102.080403700772	146.534125261616	1164.758882368852	1055.543126883730	189.591673605690	697.304136745141	1113.762881124845	721.444940867339	672.327514767560	853.942244569456	726.594365881100	
20	10.563428571429	670.881431749601	992.857555906100	449.375304763128	842.292617725365	1434.465818844248	287.596177646704	934.583186961065	1363.462211942826	453.283349214125	835.907256825563	1428.908325464201	621.294630060599	812.970221251101	1488.882361500610	441.879868774246	891.776779282139	940.253429969364	582.710290911801	894.517139118086	957.260490254350	306.538505767296	964.958122145745	759.579687408150	553.916949293730	916.765932438895	638.559010619790	622.553861056578	1002.163846154167	600.032210113342	540.222623958154	1034.098661110766	520.722062319744	551.934118746228	898.235893329515	728.155580673965	337.579554706205	783.147983667709	632.732248019882	272.412818214681	838.559716446470	540.361438260592	340.734533256560	821.997005009516	474.215408968835	351.522503831413	790.503809998208	407.635982018336	343.149421001647	691.214602990456	302.022399941824	293.524838886009	726.926019497228	188.116289944950	368.428535381759	1026.173554859343	433.622744052977	561.251472419792	985.351531624756	315.565325438490	624.820110661170	1058.671403500627	236.164191973299	567.946268356483	978.124356460785	44.317450458201	538.563089271337	1138.407994089541	126.016254110310	574.837560382316	1065.366177564898	44.771769045220	608.906281339565	1265.130063966362	94.547619730570	594.643178880456	587.424568456102	38.386220152834	413.124157217636	658.787169493134	35.162082716551	330.344819924144	743.370999623640	95.134446986830	355.617280106683	870.513345243266	41.641018666972	322.343431448106	917.680398683875	1100.865676813624	148.314082198134	1166.377325361302	1055.328040737250	192.147851967930	696.063201220435	1113.087821898910	722.719969493179	670.889632681108	853.262888753579	728.510437118060	
21	10.575714285714	672.271445745020	991.050951593938	451.046537145249	842.359409989780	1432.968896551563	289.156954471019	934.545703760175	1362.454583550871	455.057441188259	835.283128151938	1427.638540905463	622.851890729743	812.506890363062	1487.404397608057	443.355107404641	892.940094597898	938.870447560855	584.652725295754	895.983159100714	955.895809441510	308.498769935147	966.039110570293	757.885636559685	556.050280436357	916.593719618764	636.368814517039	623.424778667143	1002.480423062315	598.317718158031	541.581358128062	1033.160563669819	518.579640597152	552.499595736570	897.974556582160	726.374175913100	339.028300507848	781.994037367780	631.840090249415	273.775530216056	836.650765404857	538.908611858988	341.977910633929	819.469706070306	472.518697697997	352.676004865731	787.123252705253	406.275529441427	344.155081704603	686.490526514232	301.956478296204	294.226128967405	720.682897864033	187.419684813086	368.864247028832	1024.959042587989	430.997287891960	561.666841819219	982.933613521221	313.179091101958	624.566202717970	1055.696483605470	233.477615063876	567.690191261295	973.735083671608	43.164837803363	537.513230227564	1134.329944791671	122.868176334343	574.258006709711	1060.397527356869	43.159776734441	608.429352308327	1260.647750683087	90.176798574254	595.132296383814	579.999099104813	38.298840787400	413.084245606152	651.401900857110	35.079792496987	330.374215373385	736.037940634953	95.040451910065	355.683718622889	863.163772108942	41.451419023530	322.283647653922	918.849089458829	1099.491697371397	150.243713198381	1167.457436669499	1053.939573716941	194.731132251451	695.695987301689	1111.803914265673	724.090768957066	670.997415343015	851.899512256270	730.435134691756	
22	10.588000000000	673.755833552420	989.227368009621	452.932909258859	842.334710720006	1431.478435132445	290.872041072440	934.523205397464	1361.490640075062	456.949447330939	834.685313833389	1426.313404369158	624.578335351274	812.011921527619	1485.920932987559	444.995123049174	894.347694798510	937.526531958603	586.675948824884	897.501707299363	954.525958555862	310.563246026815	967.789924629342	756.514981704355	558.012256020020	917.178100761836	634.378744356232	624.067587079537	1003.662779763660	596.951684955537	542.800332720587	1032.954187563690	516.373286988628	552.948594146118	898.073952295529	724.602087750125	340.572102803043	781.285395720644	630.826233159316	275.337648663349	835.343545487471	537.363599640803	343.392417106094	817.617570609322	470.600605368747	353.988977751980	784.254373278627	404.723668497445	345.319241744155	682.101191465962	301.888849658257	295.037244950542	714.601324251552	186.656937932371	369.331040463386	1023.962988830054	428.154630686334	561.899646028242	980.035258436818	310.875088659184	624.220700249423	1051.543506916801	230.386087976366	567.250463644004	966.760220022244	42.305795512799	536.525130286456	1128.151796304281	119.072522043175	573.482321584361	1052.864807298242	41.530052787644	608.021676323780	1253.894375134962	84.446471877050	595.460889769074	572.554749564275	38.234096910025	413.003023129349	644.029865009256	34.973144969369	330.389084983536	728.743866134098	94.934433659777	355.723731362910	855.857058971208	41.250744171965	322.201321392170	919.586464984245	1097.979103373495	152.325995591131	1167.981461879095	1051.392556885998	197.327807444068	696.199094399276	1109.950611011996	725.580346948624	672.636804911629	849.903258062320	732.359209798585	
